<?xml version="1.0" standalone="no"?> <!DOCTYPE svg PUBLIC "-//W3C//DTD SVG 1.0//EN" "http://www.w3.org/TR/2001/REC-SVG-20010904/DTD/svg10.dtd" > <svg xmlns="http://www.w3.org/2000/svg" width="100%" height="100%">
<defs >
<font id="oswalddemibold" horiz-adv-x="1002" ><font-face
    font-family="Oswald"
    units-per-em="2048"
    panose-1="2 0 7 3 0 0 0 0 0 0"
    ascent="2233"
    descent="-548"
    alphabetic="0" />
<missing-glyph horiz-adv-x="748" d="M68 0V1365H612V0H68ZM136 68H544V1297H136V68Z" />
<glyph unicode=" " glyph-name="space" horiz-adv-x="515" />
<glyph unicode="!" glyph-name="exclam" horiz-adv-x="500" d="M189 404L98 1655H406L297 404H189ZM94 0V293H389V0H94Z" />
<glyph unicode="&quot;" glyph-name="quotedbl" horiz-adv-x="745" d="M451 1069V1658H717L598 1069H451ZM88 1069V1658H354L235 1069H88Z" />
<glyph unicode="#" glyph-name="numbersign" horiz-adv-x="1071" d="M440 763H605L632 982H468L440 763ZM120 -1L189 562H85L89 763H218L244 982H91L95 1185H278L336 1658H561L502 1185H665L724 1658H947L888 1185H986L983 982H855L828 763H980L977 562H799L729
-1H506L576 562H412L342 -1H120Z" />
<glyph unicode="$" glyph-name="dollar" d="M485 -203V-21Q274 -12 168 116T53 495L345 547Q350 235 508 235Q567 235 594 273T621 371Q621 439 597 496T538 591T441 684L263 838Q195 897 154 948T84 1079T55 1256Q55 1445 163 1554T459 1677V1851H556V1678Q641
1672 705 1642T807 1568T869 1463T903 1344T917 1219L627 1173Q625 1224 622 1258T611 1328T588 1385T550 1419T493 1430Q437 1427 407 1387T376 1290Q376 1245 386 1209T421 1139T465 1086T522 1032L697 880Q816 774 882 660T948 391Q948 225 848 112T580 -19V-203H485Z"
/>
<glyph unicode="%" glyph-name="percent" horiz-adv-x="2031" d="M675 0L1162 1658H1355L867 0H675ZM1566 -5Q1366 -5 1278 102T1189 428V506Q1189 728 1275 829T1566 930Q1770 930 1857 831T1945 512V425Q1945 206 1856 101T1566 -5ZM1535 201T1566 201T1619
212T1653 242T1672 292T1680 355T1682 435V503Q1682 553 1681 582T1673 641T1655 687T1621 712T1566 722T1512 712T1478 687T1459 641T1452 582T1450 503V434Q1450 386 1452 355T1460 291T1479 242T1513 213ZM463 728Q263 728 175 835T87 1160V1239Q87 1461 173
1562T463 1663Q668 1663 755 1564T842 1245V1157Q842 939 753 834T463 728ZM463 934Q494 934 516 945T550 975T569 1025T578 1088T580 1167V1235Q580 1286 579 1314T571 1374T553 1420T518 1445T463 1455T409 1445T375 1420T356 1374T349 1315T347 1236V1167Q347
1127 348 1100T354 1044T366 997T386 964T418 941T463 934Z" />
<glyph unicode="&amp;" glyph-name="ampersand" horiz-adv-x="1187" d="M499 993Q542 1064 581 1168T620 1350Q620 1398 592 1426T519 1454Q474 1454 447 1417T420 1321Q420 1284 430 1233T450 1147T478 1058T499 993ZM468 195Q568 195 633 280Q449 625 436 657Q350
521 350 379Q350 297 383 246T468 195ZM463 -23Q296 -23 194 83T91 361Q91 505 157 638T325 867Q309 900 271 972T212 1086T174 1190T156 1310Q156 1470 252 1575T509 1680Q668 1680 772 1588T876 1338Q876 1296 868 1254T849 1180T816 1108T778 1045T731 984T685
930T636 877T591 830L793 470Q817 515 833 612T854 804H1086Q1086 534 954 294Q974 268 1013 248T1093 224V-21Q1061 -27 1043 -27Q1023 -27 1003 -23T968 -13T931 4T899 24T867 49T840 73T811 99T785 123Q730 54 647 16T463 -23Z" />
<glyph unicode="&apos;" glyph-name="quotesingle" horiz-adv-x="558" d="M111 1069V1658H369L265 1069H111Z" />
<glyph unicode="(" glyph-name="parenleft" horiz-adv-x="674" d="M605 -381Q533 -381 473 -363T368 -313T287 -231T227 -126T184 2T157 145T141 304T134 469T132 641Q132 744 133 821T141 991T157 1153T184 1297T226 1425T286 1529T367 1609T473 1658T605 1676V1461Q565
1461 535 1435T484 1355T452 1233T433 1067T424 871T421 641Q421 509 423 411T433 216T454 53T487 -64T536 -141T605 -166V-381Z" />
<glyph unicode=")" glyph-name="parenright" horiz-adv-x="634" d="M69 -381V-165Q102 -165 128 -145T174 -90T207 0T230 120T244 270T251 444T253 643Q253 777 251 873T242 1069T223 1235T190 1356T140 1436T69 1462V1676Q141 1676 201 1658T306 1610T387 1529T447
1426T489 1298T517 1154T533 992T540 823T542 643Q542 515 539 422T525 215T495 21T440 -140T356 -270T234 -350T69 -381Z" />
<glyph unicode="*" glyph-name="asterisk" horiz-adv-x="857" d="M343 929L161 1037L310 1249L86 1335L156 1522L363 1409L336 1657H568L542 1408L748 1523L818 1334L593 1248L745 1038L560 929L452 1157L343 929Z" />
<glyph unicode="+" glyph-name="plus" horiz-adv-x="907" d="M345 423V754H53V946H345V1272H556V946H854V754H556V423H345Z" />
<glyph unicode="," glyph-name="comma" horiz-adv-x="461" d="M131 -285L106 -177Q168 -162 207 -119T246 0H85V294H382V31Q382 -252 131 -285Z" />
<glyph unicode="-" glyph-name="hyphen" horiz-adv-x="760" d="M123 583V789H637V583H123Z" />
<glyph unicode="." glyph-name="period" horiz-adv-x="470" d="M93 0V298H390V0H93Z" />
<glyph unicode="/" glyph-name="slash" horiz-adv-x="841" d="M82 0L570 1658H758L269 0H82Z" />
<glyph unicode="0" glyph-name="zero" horiz-adv-x="1071" d="M536 -27Q322 -27 208 103T94 452V1194Q94 1420 204 1550T536 1680Q756 1680 867 1550T978 1194V452Q978 235 864 104T536 -27ZM536 250Q657 250 657 459V1186Q657 1229 654 1259T640 1326T603 1383T536
1403Q508 1403 487 1394T454 1366T433 1329T422 1281T417 1234T416 1186V459Q416 250 536 250Z" />
<glyph unicode="1" glyph-name="one" horiz-adv-x="1059" d="M434 0V1326L187 1241V1477Q271 1511 367 1561T506 1658H751V0H434Z" />
<glyph unicode="2" glyph-name="two" horiz-adv-x="1058" d="M103 0V223L502 844Q509 855 549 915T601 998T638 1070T672 1160T681 1247Q681 1333 646 1377Q616 1415 564 1415Q556 1415 547 1414Q416 1402 416 1168V1093H108V1173Q108 1287 133 1377T210 1537T350
1644T556 1682Q772 1682 883 1567T994 1244Q994 1173 980 1109T934 982T877 877T804 766Q789 745 782 734L462 251H950V0H103Z" />
<glyph unicode="3" glyph-name="three" horiz-adv-x="1046" d="M538 -27Q90 -27 90 470V529H407V477Q408 350 436 294T541 238Q582 238 607 253T646 302T663 375T668 477Q668 609 629 673T486 741H433V981H480Q587 983 627 1038T668 1220Q668 1325 639 1376T535
1427T435 1371T407 1208V1136H90V1226Q90 1443 207 1562T534 1682Q748 1682 864 1567T981 1236Q981 1095 922 999T769 876Q981 799 981 484Q981 367 957 276T881 116T743 10T538 -27Z" />
<glyph unicode="4" glyph-name="four" horiz-adv-x="1071" d="M323 635H567V1332L323 635ZM567 0V392H70V651L496 1658H856V635H1021V392H856V0H567Z" />
<glyph unicode="5" glyph-name="five" horiz-adv-x="1056" d="M537 -27Q434 -27 358 -3T235 63T159 172T119 312T108 484H416Q416 412 421 366T440 282T482 227Q508 211 549 211Q551 211 554 211Q577 212 595 218T627 239T649 269T664 312T673 361T678 423T680
490T681 567Q681 614 679 649T673 720T658 781T633 826T595 856T541 866Q429 866 399 719H126L147 1658H914V1383H409L391 1021Q418 1052 475 1074T601 1101Q619 1102 635 1102Q798 1102 886 978Q982 841 982 584Q982 490 975 417T951 271T901 147T820 55T701 -6T537
-27Z" />
<glyph unicode="6" glyph-name="six" horiz-adv-x="1070" d="M554 216Q592 216 617 235T654 294T672 381T677 499Q677 544 677 567T674 626T667 682T653 726T631 761T597 781T551 790Q508 790 474 766T423 708V449Q423 216 554 216ZM550 -22Q434 -22 347 19T208
135T129 307T103 525V1102Q103 1205 115 1287T157 1445T237 1570T366 1649T549 1679Q769 1679 869 1573T972 1257V1231H671Q671 1342 648 1389T551 1437T450 1364T423 1100V930Q450 976 506 1002T635 1030Q638 1030 641 1030Q714 1030 774 1008Q836 984 877 942T944
839T981 708T993 555Q993 451 980 366T934 208T852 84T726 6T550 -22Z" />
<glyph unicode="7" glyph-name="seven" horiz-adv-x="960" d="M211 0L553 1417H109V1658H862V1455L518 0H211Z" />
<glyph unicode="8" glyph-name="eight" horiz-adv-x="1058" d="M529 993Q644 993 644 1247Q644 1336 616 1388T529 1441Q469 1441 440 1389T411 1248Q411 993 529 993ZM529 212Q565 212 590 229T630 270T651 332T661 400T663 469Q663 524 659 565T641 647T600
710T529 732T459 710T417 648T398 566T393 469Q393 430 395 399T405 331T428 270T468 229T529 212ZM973 -24T529 -24T85 478Q85 484 85 489Q86 623 134 723T276 874Q114 996 111 1235Q111 1243 111 1250Q110 1450 214 1562Q322 1678 529 1678Q736 1678 842 1562Q945
1449 944 1247Q944 1241 944 1235Q940 990 780 874Q874 822 922 722T973 489Q973 480 973 471Q973 -24 529 -24Z" />
<glyph unicode="9" glyph-name="nine" horiz-adv-x="1070" d="M533 867Q612 867 655 949V1208Q655 1257 650 1295T633 1368T594 1422T530 1441Q499 1441 477 1428T442 1391T421 1331T411 1254T408 1158Q408 1112 408 1090T411 1031T417 975T431 932T453 896T487
876T533 867ZM529 -22Q308 -22 209 84T108 403V426H409Q409 316 433 269T531 221T630 293T655 558V727Q628 681 573 655T445 627Q442 627 439 627Q365 626 305 650Q243 674 203 719T137 827T99 961T87 1116Q87 1679 530 1679Q646 1679 733 1640T873 1529T951 1361T977
1146V555Q977 452 965 370T922 212T841 87T712 8T529 -22Z" />
<glyph unicode=":" glyph-name="colon" horiz-adv-x="524" d="M131 842V1134H425V842H131ZM131 140V431H425V140H131Z" />
<glyph unicode=";" glyph-name="semicolon" horiz-adv-x="545" d="M130 878V1175H424V878H130ZM177 -205L152 -97Q293 -83 293 62H131V355H429V92Q427 -204 177 -205Z" />
<glyph unicode="&lt;" glyph-name="less" horiz-adv-x="804" d="M686 164L63 598V854L686 1290V1011L287 727L686 441V164Z" />
<glyph unicode="=" glyph-name="equal" horiz-adv-x="895" d="M124 906V1104H771V906H124ZM124 523V721H771V523H124Z" />
<glyph unicode="&gt;" glyph-name="greater" horiz-adv-x="804" d="M113 164V441L512 727L113 1011V1290L737 854V598L113 164Z" />
<glyph unicode="?" glyph-name="question" horiz-adv-x="995" d="M271 0V297H574V0H271ZM280 431V693Q617 981 617 1252Q617 1263 616 1274Q613 1344 576 1380T482 1416Q426 1416 396 1379Q370 1347 370 1298Q370 1290 371 1282Q371 1240 389 1184L108 1123Q82
1223 82 1271Q79 1300 79 1328Q80 1474 164 1570Q264 1684 477 1684Q692 1684 807 1573T923 1262Q923 1083 821 919T561 629V431H280Z" />
<glyph unicode="@" glyph-name="at" horiz-adv-x="1934" d="M965 426Q978 428 992 433T1024 450T1058 480T1081 525L1145 1001Q1142 1012 1125 1018T1091 1024Q1013 1024 952 963T859 811T827 619Q826 531 860 475Q890 425 950 425Q957 425 965 426ZM969 -268Q532
-268 306 -20Q112 193 113 551Q113 610 118 672Q148 1134 410 1396T1104 1659Q1267 1659 1399 1615T1621 1494T1769 1309T1850 1076Q1865 992 1865 901Q1865 856 1861 809Q1856 723 1835 639T1771 474T1670 334T1526 236T1342 199Q1251 199 1181 241T1091 361Q1069
301 1019 260T899 213Q883 212 868 212Q804 212 750 236Q682 266 640 323T575 456Q556 523 556 600Q556 610 556 621Q558 700 576 783T634 951T726 1101T858 1208T1028 1250Q1056 1250 1080 1240T1122 1208T1149 1175T1170 1140Q1171 1138 1172 1137T1174 1133L1194
1236H1436L1339 540Q1331 482 1331 445Q1331 414 1337 398Q1346 375 1365 372Q1376 370 1387 370Q1474 370 1550 486Q1636 616 1647 801Q1650 845 1650 886Q1650 953 1642 1013Q1628 1111 1587 1194T1479 1337T1312 1429T1082 1462Q913 1462 779 1402T556 1235T417
988T354 678Q349 618 349 563Q349 288 481 126Q640 -68 998 -68Q1081 -68 1192 -51T1394 -4L1433 -201Q1172 -268 969 -268Z" />
<glyph unicode="A" glyph-name="A" horiz-adv-x="1099" d="M453 576H650L551 1236L453 576ZM41 0L365 1658H735L1058 0H745L684 367H421L360 0H41Z" />
<glyph unicode="B" glyph-name="B" horiz-adv-x="1174" d="M460 989H541Q666 989 712 1044T758 1223Q758 1338 699 1383T511 1428H460V989ZM460 237H552Q679 237 728 297T778 491Q778 636 725 698T542 760H460V237ZM123 0V1658H543Q635 1658 707 1647T847 1608T959
1532T1028 1408Q1052 1334 1052 1237Q1052 1233 1052 1229Q1048 930 809 891Q1099 846 1102 487Q1102 481 1102 476Q1102 242 980 122Q855 0 618 0H123Z" />
<glyph unicode="C" glyph-name="C" horiz-adv-x="1129" d="M584 -22Q448 -22 352 17T201 133T122 307T98 535V1120Q98 1255 122 1354T201 1528T351 1641T584 1679Q714 1679 805 1646T949 1547T1025 1398T1049 1200V1056H720V1212Q720 1240 720 1251T719 1287T716
1322T709 1353T698 1382T681 1404T658 1422T626 1432T585 1437Q546 1437 519 1424T476 1390T453 1336T443 1272T441 1197V456Q441 335 471 278T585 221Q617 221 641 229T679 255T702 291T714 341T719 395T720 456V618H1049V478Q1049 363 1027 277T953 121T809 15T584
-22Z" />
<glyph unicode="D" glyph-name="D" horiz-adv-x="1167" d="M123 0V1658H526Q683 1658 787 1629T954 1534T1043 1374T1069 1137V539Q1069 395 1043 297T955 131T790 31T534 0H123ZM460 235H530Q565 235 592 239T640 253T674 273T697 304T712 341T720 390T723 445T724
510V1175Q724 1234 721 1269T707 1336T675 1385T617 1410T527 1420H460V235Z" />
<glyph unicode="E" glyph-name="E" horiz-adv-x="896" d="M123 0V1658H845V1424H460V985H759V749H460V230H849V0H123Z" />
<glyph unicode="F" glyph-name="F" horiz-adv-x="866" d="M123 0V1658H825V1427H460V980H763V744H460V0H123Z" />
<glyph unicode="G" glyph-name="G" horiz-adv-x="1169" d="M548 -23Q425 -23 337 17T197 134T122 313T98 552V1098Q98 1210 112 1297T162 1457T252 1578T390 1652T584 1679Q714 1679 807 1647T954 1549T1033 1397T1058 1193V1099H731V1211Q731 1257 729 1286T719
1346T696 1396T655 1425T589 1437Q548 1437 520 1423T477 1388T454 1330T444 1264T442 1188V469Q442 348 475 285T598 222Q689 222 724 289T760 482V645H597V853H1064V0H843L821 152Q746 -23 548 -23Z" />
<glyph unicode="H" glyph-name="H" horiz-adv-x="1224" d="M128 0V1658H466V978H758V1658H1096V0H758V737H466V0H128Z" />
<glyph unicode="I" glyph-name="I" horiz-adv-x="591" d="M129 0V1658H464V0H129Z" />
<glyph unicode="J" glyph-name="J" horiz-adv-x="693" d="M23 -38V198Q26 198 30 198Q148 198 189 234Q232 270 232 385V1658H570L569 373Q567 265 549 192T488 66T370 -13T186 -38H23Z" />
<glyph unicode="K" glyph-name="K" horiz-adv-x="1127" d="M123 0V1658H460V963L761 1658H1087L776 912L1110 0H769L507 759L460 679V0H123Z" />
<glyph unicode="L" glyph-name="L" horiz-adv-x="885" d="M123 0V1658H460V230H847V0H123Z" />
<glyph unicode="M" glyph-name="M" horiz-adv-x="1421" d="M119 0L146 1658H501L710 600L930 1658H1275L1302 0H1055L1032 1119L817 0H611L390 1125L369 0H119Z" />
<glyph unicode="N" glyph-name="N" horiz-adv-x="1131" d="M123 0V1658H358L728 797V1658H1008V0H783L411 916V0H123Z" />
<glyph unicode="O" glyph-name="O" horiz-adv-x="1177" d="M587 -22Q452 -22 357 14T206 123T124 294T98 525V1137Q98 1270 123 1367T205 1536T357 1643T587 1679Q850 1679 964 1542T1079 1137V525Q1079 257 965 118T587 -22ZM549 221T587 221T652 233T695 265T720
315T731 374T734 443V1219Q734 1259 732 1287T720 1346T696 1394T653 1425T587 1437T522 1425T480 1395T457 1346T446 1287T443 1219V443Q443 403 445 375T456 315T480 265T522 234Z" />
<glyph unicode="P" glyph-name="P" horiz-adv-x="1117" d="M460 958H568Q680 958 718 1008T756 1186Q756 1251 751 1288T727 1359T670 1407T568 1421H460V958ZM123 0V1658H641Q1073 1658 1073 1182Q1073 1053 1039 962T941 819T796 745T610 722H460V0H123Z" />
<glyph unicode="Q" glyph-name="Q" horiz-adv-x="1177" d="M549 221T587 221T652 233T695 265T720 315T731 374T734 443V1219Q734 1259 732 1287T720 1346T696 1394T653 1425T587 1437T522 1425T480 1395T457 1346T446 1287T443 1219V443Q443 403 445 375T456
315T480 265T522 234ZM952 -329Q877 -296 780 -206T622 -21Q610 -22 587 -22Q452 -22 357 14T206 123T124 294T98 525V1137Q98 1270 123 1367T205 1536T357 1643T587 1679Q850 1679 964 1542T1079 1137V525Q1079 146 855 33Q952 -78 1019 -116L952 -329Z" />
<glyph unicode="R" glyph-name="R" horiz-adv-x="1185" d="M460 952H544Q666 952 717 1009T768 1193Q768 1316 724 1372T563 1429H460V952ZM123 0V1658H542Q674 1658 769 1638T937 1568T1047 1432T1084 1218Q1084 1058 1039 959T882 809L1111 0H767L577 748H460V0H123Z" />
<glyph unicode="S" glyph-name="S" horiz-adv-x="1033" d="M553 -22Q322 -22 208 105T84 495L376 547Q378 392 417 314T539 235Q598 235 624 273T651 371Q651 469 609 535T472 684L294 838Q226 897 185 948T115 1079T86 1256Q86 1457 205 1567T532 1679Q602 1679
660 1665T759 1627T833 1567T885 1493T919 1406T939 1314T948 1219L658 1173Q656 1224 653 1258T642 1328T619 1385T581 1419T524 1430Q468 1427 438 1387T407 1290Q407 1245 417 1209T452 1139T495 1086T552 1032L727 880Q783 830 824 783T903 676T959 544T979
391Q979 210 862 94T553 -22Z" />
<glyph unicode="T" glyph-name="T" horiz-adv-x="892" d="M280 0V1409H15V1658H878V1409H617V0H280Z" />
<glyph unicode="U" glyph-name="U" horiz-adv-x="1180" d="M590 -22Q451 -22 357 14T209 125T133 298T111 537V1658H442V494Q442 447 444 414T455 342T479 281T523 242T590 226T657 241T701 280T725 342T736 413T738 494V1658H1069V537Q1069 397 1047 299T972
126T825 15T590 -22Z" />
<glyph unicode="V" glyph-name="V" horiz-adv-x="1069" d="M363 0L46 1658H339L535 524L719 1658H1025L706 0H363Z" />
<glyph unicode="W" glyph-name="W" horiz-adv-x="1449" d="M278 0L62 1658H347L462 647L611 1658H836L991 650L1106 1658H1388L1171 0H887L725 1048L567 0H278Z" />
<glyph unicode="X" glyph-name="X" horiz-adv-x="1040" d="M17 0L345 887L29 1658H347L543 1180L707 1658H996L692 812L1023 0H708L493 522L303 0H17Z" />
<glyph unicode="Y" glyph-name="Y" horiz-adv-x="1007" d="M343 0V657L18 1658H334L513 1072L680 1658H989L666 657V0H343Z" />
<glyph unicode="Z" glyph-name="Z" horiz-adv-x="879" d="M67 0V211L486 1427H85V1658H824V1480L389 230H827V0H67Z" />
<glyph unicode="[" glyph-name="bracketleft" horiz-adv-x="693" d="M111 -384L112 1658H618V1531H368L367 -256H617V-384H111Z" />
<glyph unicode="\" glyph-name="backslash" horiz-adv-x="841" d="M571 0L82 1658H270L758 0H571Z" />
<glyph unicode="]" glyph-name="bracketright" horiz-adv-x="661" d="M44 -384V-256H294L293 1530H43V1658H549L550 -384H44Z" />
<glyph unicode="^" glyph-name="asciicircum" horiz-adv-x="967" d="M64 975L353 1658H613L903 975H633L482 1400L333 975H64Z" />
<glyph unicode="_" glyph-name="underscore" horiz-adv-x="742" d="M0 -329V-116H742V-329H0Z" />
<glyph unicode="`" glyph-name="grave" horiz-adv-x="623" d="M346 1247L93 1658H409L532 1247H346Z" />
<glyph unicode="a" glyph-name="a" horiz-adv-x="954" d="M457 204Q484 204 512 224T558 268V592Q475 549 420 480T364 335Q364 275 389 240T457 204ZM342 -20Q262 -19 200 24T107 131T76 266Q76 312 85 354T107 429T144 492T189 545T244 591T304 628T369 661T432
688T497 714T558 737V846Q558 910 542 941T478 973Q399 973 395 862L389 781L96 793Q96 813 99 834Q112 1024 214 1113T505 1203Q680 1203 768 1107T857 844V297Q857 161 879 0H602Q577 131 573 170Q549 89 491 35T342 -20Z" />
<glyph unicode="b" glyph-name="b" horiz-adv-x="1010" d="M524 190Q525 190 526 190Q574 190 594 236Q614 284 613 365V850Q613 1004 525 1004Q522 1004 519 1004Q474 1003 417 962V223Q469 191 524 190ZM654 -20Q535 -20 417 88V0H108V1658H417V1096Q532 1203
659 1203Q662 1203 666 1203Q737 1202 789 1168T869 1077T910 960T923 831V378Q923 200 856 90T654 -20Z" />
<glyph unicode="c" glyph-name="c" horiz-adv-x="932" d="M477 -20Q280 -20 182 89T83 398V787Q83 987 181 1095T477 1203Q859 1203 859 843V731H564V850Q564 927 544 957T479 988Q431 988 412 952T393 822V358Q393 265 413 231T480 197T545 229T564 331V473H859V344Q859
165 762 73T477 -20Z" />
<glyph unicode="d" glyph-name="d" horiz-adv-x="1003" d="M492 188Q533 188 588 218V969Q538 999 492 999Q442 999 420 957T397 847V355Q397 188 492 188ZM369 -20Q87 -20 87 376V795Q87 914 114 1003T205 1147T367 1203Q484 1203 588 1111V1658H897V0H588V86Q483
-19 369 -20Z" />
<glyph unicode="e" glyph-name="e" horiz-adv-x="940" d="M390 723H571V839Q571 915 549 948T478 981T410 944T390 812V723ZM480 -20Q281 -20 182 88T83 400V783Q83 986 183 1094T479 1203Q680 1203 770 1095T861 772V574H390V380Q390 292 408 248T479 203Q571
203 571 336V446H860V350Q860 170 762 75T480 -20Z" />
<glyph unicode="f" glyph-name="f" horiz-adv-x="642" d="M156 0V970H36V1184H156V1258Q156 1329 162 1378T186 1475T238 1551T329 1596T466 1613Q526 1613 622 1602V1372Q552 1382 549 1382Q465 1382 465 1276V1184H622V970H465V0H156Z" />
<glyph unicode="g" glyph-name="g" horiz-adv-x="990" d="M485 556Q548 556 567 605T586 782Q586 836 585 868T578 931T561 977T532 1002T486 1012Q458 1012 440 1002T411 976T395 929T388 866T386 782Q386 723 389 686T403 617T433 571T485 556ZM534 -153Q617
-153 655 -134T697 -71Q698 -63 698 -56Q698 -14 673 6Q644 30 568 38L385 57Q332 -13 332 -66Q332 -112 374 -132T534 -153ZM535 -357Q476 -357 430 -355T322 -347T217 -325T133 -288T71 -228T49 -143Q49 -11 216 99Q147 124 115 157T78 233Q76 247 76 259Q76
308 104 348Q139 398 218 461Q154 509 121 581T88 770Q88 989 190 1096T480 1203T743 1095Q816 1179 903 1223L945 1244L1017 1083Q984 1074 917 1046T817 999Q839 964 855 902T871 770Q871 578 780 471T498 364Q458 364 406 373T328 394Q294 350 294 320Q294 317
294 314Q298 280 402 267Q421 263 514 253T639 237Q800 218 869 149T939 -49Q939 -201 846 -279T535 -357Z" />
<glyph unicode="h" glyph-name="h" horiz-adv-x="1014" d="M108 0V1658H418V1074Q550 1203 709 1203Q812 1203 864 1128T916 937V0H607V882Q607 931 592 955Q578 978 538 978Q536 978 535 978Q488 978 418 928V0H108Z" />
<glyph unicode="i" glyph-name="i" horiz-adv-x="529" d="M110 1378V1613H421V1378H110ZM111 0V1184H420V0H111Z" />
<glyph unicode="j" glyph-name="j" horiz-adv-x="544" d="M132 1378V1613H443V1378H132ZM-24 -325V-103Q16 -110 35 -110Q133 -110 133 -2V1184H442V-38Q442 -180 363 -264T139 -348Q55 -348 -24 -325Z" />
<glyph unicode="k" glyph-name="k" horiz-adv-x="1051" d="M108 1V1659H415V727L705 1184H1048L746 704L1044 0H712L504 571L415 452V1H108Z" />
<glyph unicode="l" glyph-name="l" horiz-adv-x="542" d="M121 0V1658H431V0H121Z" />
<glyph unicode="m" glyph-name="m" horiz-adv-x="1509" d="M106 0V1184H405V1085Q525 1206 686 1206Q756 1206 808 1170T886 1063Q1012 1206 1187 1206Q1289 1206 1350 1132T1411 922V0H1111V893Q1111 948 1092 972T1035 995Q973 995 908 941Q909 935 909 922V0H611V893Q612
948 592 972Q574 995 539 995Q536 995 533 995Q475 995 405 939V0H106Z" />
<glyph unicode="n" glyph-name="n" horiz-adv-x="1008" d="M106 0V1184H415V1067Q558 1203 703 1203Q806 1203 858 1128T910 937V0H600V882Q600 931 585 955T529 978Q481 978 415 931V0H106Z" />
<glyph unicode="o" glyph-name="o" horiz-adv-x="962" d="M479 -20Q287 -20 185 83T83 381V803Q83 996 185 1099T479 1203Q672 1203 775 1100T879 803V381Q879 188 776 84T479 -20ZM480 192Q535 192 554 234T573 359V824Q573 907 554 949T480 992Q426 992 408
949T389 824V359Q389 278 407 235T480 192Z" />
<glyph unicode="p" glyph-name="p" horiz-adv-x="1008" d="M520 190Q555 190 576 215T604 276T611 365V850Q610 919 588 963Q567 1004 521 1004Q518 1004 515 1004Q472 1003 415 962V223Q467 191 520 190ZM106 -390V1184H415V1095Q531 1203 657 1203Q660 1203
664 1203Q735 1202 787 1168T867 1077T908 960T921 831V378Q921 200 854 90T652 -20Q534 -20 415 89V-390H106Z" />
<glyph unicode="q" glyph-name="q" horiz-adv-x="1005" d="M493 188Q534 188 592 221V967Q538 999 493 999Q444 999 421 957T397 847V355Q397 188 493 188ZM592 -390V90Q483 -19 368 -20Q87 -20 87 376V795Q87 979 155 1091T366 1203Q485 1203 592 1106V1184H901V-390H592Z"
/>
<glyph unicode="r" glyph-name="r" horiz-adv-x="738" d="M110 0V1184H419V994Q529 1199 661 1199Q682 1199 706 1192V905Q672 917 633 917Q566 914 516 883T419 783V0H110Z" />
<glyph unicode="s" glyph-name="s" horiz-adv-x="841" d="M435 -20Q139 -20 41 287L264 377Q321 194 425 194Q429 194 433 194Q471 196 495 222Q517 246 517 280Q517 283 517 286Q515 339 378 456L256 560Q70 718 70 880Q70 1024 172 1114Q272 1203 421 1203Q563
1203 655 1122T782 897L580 807Q562 880 526 931T437 984Q434 984 431 984Q395 984 373 962Q349 938 348 905Q347 882 369 851T413 799T481 738L603 628Q640 596 661 576T713 520T760 455T789 384T802 299Q802 199 751 125T618 16T435 -20Z" />
<glyph unicode="t" glyph-name="t" horiz-adv-x="704" d="M439 -15Q367 -13 314 8T230 64T179 150T153 255T146 378V981H32V1184H146V1538H458V1184H633V981H458V337Q458 237 565 234Q568 234 572 234Q604 234 652 242V0Q530 -15 456 -15Q447 -15 439 -15Z" />
<glyph unicode="u" glyph-name="u" horiz-adv-x="1001" d="M303 -19Q200 -19 148 56T96 247V1184H405V295Q406 246 422 222T476 198Q478 198 479 198Q525 199 585 240V1184H895V0H585V110Q448 -19 303 -19Z" />
<glyph unicode="v" glyph-name="v" horiz-adv-x="846" d="M257 0L24 1184H323L429 381L531 1184H827L592 0H257Z" />
<glyph unicode="w" glyph-name="w" horiz-adv-x="1221" d="M224 0L47 1184H304L397 469L505 1184H730L828 459L932 1184H1175L991 0H728L613 698L490 0H224Z" />
<glyph unicode="x" glyph-name="x" horiz-adv-x="878" d="M19 0L273 642L29 1184H337L475 881L594 1184H846L602 597L871 0H562L409 340L284 0H19Z" />
<glyph unicode="y" glyph-name="y" horiz-adv-x="888" d="M126 -331V-113Q242 -113 284 -90Q318 -71 319 -18Q319 -6 317 7Q310 58 275 188Q257 264 142 686T9 1184H305L452 459L572 1184H868L588 -63Q530 -331 177 -331Q172 -331 167 -331H126Z" />
<glyph unicode="z" glyph-name="z" horiz-adv-x="780" d="M69 0V201L402 957H97V1184H725V1000L394 228H727V0H69Z" />
<glyph unicode="{" glyph-name="braceleft" horiz-adv-x="734" d="M674 -401Q568 -401 496 -393T373 -363T293 -312T248 -229T228 -118T223 31V231Q223 307 222 349T216 431T204 486T180 516T145 532T93 535V754Q125 754 144 757T180 773T203 802T216 857T222
939T223 1057V1257Q223 1326 225 1372T235 1466T256 1542T293 1598T349 1641T428 1668T535 1684T674 1689V1477Q636 1477 613 1475T571 1462T543 1439T528 1396T520 1334T518 1244V1020Q518 846 480 756T349 644Q442 623 480 533T518 269V45Q518 -22 521 -59T532
-126T559 -167T603 -184T674 -189V-401Z" />
<glyph unicode="|" glyph-name="bar" horiz-adv-x="529" d="M134 -351V1658H396L395 -351H134Z" />
<glyph unicode="}" glyph-name="braceright" horiz-adv-x="756" d="M82 -401V-189Q120 -189 143 -187T185 -174T213 -151T229 -108T236 -45T238 45V269Q238 443 276 533T407 644Q315 666 277 756T238 1020V1244Q238 1300 237 1333T229 1395T214 1438T185 1462T143
1474T82 1477V1689Q161 1689 220 1685T327 1668T407 1641T463 1599T500 1542T521 1466T531 1373T534 1257V1057Q534 981 535 939T541 858T553 803T576 773T611 757T663 754V535Q631 535 612 533T577 517T553 487T541 431T535 350T534 231V31Q534 -38 532 -84T522
-177T501 -253T464 -310T408 -353T328 -380T221 -396T82 -401Z" />
<glyph unicode="~" glyph-name="asciitilde" horiz-adv-x="975" d="M658 695Q610 695 543 725T416 786T322 816Q296 816 255 790T179 723L79 856Q124 924 194 981T324 1038Q372 1038 438 1009T564 950T656 920Q706 920 798 1014L906 897Q867 821 795 758T658 695Z" />
</font>
</defs>
</svg>
