<?xml version="1.0" standalone="no"?> <!DOCTYPE svg PUBLIC "-//W3C//DTD SVG 1.0//EN" "http://www.w3.org/TR/2001/REC-SVG-20010904/DTD/svg10.dtd" > <svg xmlns="http://www.w3.org/2000/svg" width="100%" height="100%">
<defs >
<font id="oswaldextralight" horiz-adv-x="856" ><font-face
    font-family="Oswald"
    units-per-em="2048"
    panose-1="2 0 3 3 0 0 0 0 0 0"
    ascent="2233"
    descent="-548"
    alphabetic="0" />
<missing-glyph horiz-adv-x="748" d="M68 0V1365H612V0H68ZM136 68H544V1297H136V68Z" />
<glyph unicode=" " glyph-name="space" horiz-adv-x="388" />
<glyph unicode="!" glyph-name="exclam" horiz-adv-x="404" d="M182 356L141 1658H265L221 356H182ZM139 0V151H262V0H139Z" />
<glyph unicode="&quot;" glyph-name="quotedbl" horiz-adv-x="699" d="M432 1188V1658H543L491 1188H432ZM162 1188V1658H274L222 1188H162Z" />
<glyph unicode="#" glyph-name="numbersign" horiz-adv-x="928" d="M342 678H556L612 1022H398L342 678ZM131 0L226 599H96V678H239L295 1022H133V1101H308L397 1658H500L411 1101H625L714 1658H817L728 1101H845V1022H716L659 678H807V599H647L551 0H448L544
599H330L234 0H131Z" />
<glyph unicode="$" glyph-name="dollar" horiz-adv-x="923" d="M476 -192V-21Q120 -15 85 409L183 440Q192 369 204 317T240 217T295 138T375 89T487 71Q752 71 752 338Q752 440 701 524T536 720L233 1022Q89 1166 89 1337Q89 1493 180 1581T426 1676V1870H487V1676Q649
1668 737 1572T838 1261L744 1239Q728 1419 666 1503T465 1587H455Q334 1585 262 1526T190 1345Q190 1280 218 1221T312 1094L611 799Q726 685 791 576T857 344Q857 178 771 86T535 -19V-192H476Z" />
<glyph unicode="%" glyph-name="percent" horiz-adv-x="1302" d="M320 0L887 1680H986L421 0H320ZM1216 -13T1007 -13T798 266V557Q798 831 1007 831T1216 560V264Q1216 -13 1007 -13ZM1007 72Q1117 72 1117 260V562Q1117 746 1007 746T897 561V260Q897 168 922
120T1007 72ZM296 855Q87 855 87 1134V1425Q87 1699 296 1699Q504 1699 504 1428V1132Q504 855 296 855ZM296 940Q406 940 406 1128V1430Q406 1614 296 1614Q236 1614 211 1566T186 1429V1128Q186 1036 211 988T296 940Z" />
<glyph unicode="&amp;" glyph-name="ampersand" horiz-adv-x="1232" d="M466 916Q607 1048 688 1163T769 1392Q769 1485 707 1535T539 1586Q421 1586 360 1517T299 1340Q299 1251 336 1161T466 916ZM513 70Q595 70 664 103T805 211L441 782Q322 656 274 558T226
357Q226 315 235 276T265 199T319 133T401 87T513 70ZM511 -22Q383 -22 292 31T159 169T117 358Q117 475 179 592T395 861Q278 1050 236 1144T193 1337Q193 1500 286 1588T542 1677Q697 1677 786 1600T875 1388Q875 1269 782 1139T506 848L867 278Q932 360 978
492T1027 719H1126Q1126 606 1072 459T927 208Q981 139 1027 114T1132 89V-12Q1107 -12 1087 -8Q964 6 862 141Q798 70 708 24T511 -22Z" />
<glyph unicode="&apos;" glyph-name="quotesingle" horiz-adv-x="487" d="M162 1188V1658H274L222 1188H162Z" />
<glyph unicode="(" glyph-name="parenleft" horiz-adv-x="545" d="M482 -302Q425 -297 380 -276T303 -212T247 -124T209 -3T186 136T173 303T168 482T167 683Q167 811 168 885T173 1066T185 1236T208 1376T246 1498T302 1584T380 1646T482 1669V1590Q452 1586
427 1573T383 1534T348 1482T321 1409T302 1326T289 1226T281 1117T277 994T276 865T275 724V683V629Q275 520 275 457T278 302T287 158T302 38T327 -67T364 -143T415 -200T482 -224V-302Z" />
<glyph unicode=")" glyph-name="parenright" horiz-adv-x="522" d="M63 -302V-224Q93 -220 118 -207T162 -168T197 -116T224 -43T243 40T256 141T264 249T268 373T269 502T270 643V684V725Q270 837 270 900T267 1056T259 1203T244 1324T219 1431T182 1508T131
1566T63 1590V1669Q120 1666 165 1647T242 1585T298 1498T336 1377T359 1237T372 1067T377 886T378 684Q378 557 377 484T372 304T360 137T337 -2T299 -124T243 -211T165 -275T63 -302Z" />
<glyph unicode="*" glyph-name="asterisk" horiz-adv-x="730" d="M205 1008L136 1052L324 1298L60 1405L89 1476L345 1353L332 1657H419L403 1353L656 1476L685 1405L422 1298L610 1049L541 1008L372 1269L205 1008Z" />
<glyph unicode="+" glyph-name="plus" horiz-adv-x="745" d="M329 492V810H46V892H329V1205H414V892H699V810H414V492H329Z" />
<glyph unicode="," glyph-name="comma" horiz-adv-x="363" d="M141 -220L113 -173Q164 -135 181 -99T199 0H125V216H257V23Q257 -73 232 -125T141 -220Z" />
<glyph unicode="-" glyph-name="hyphen" horiz-adv-x="580" d="M79 653V743H502V653H79Z" />
<glyph unicode="." glyph-name="period" horiz-adv-x="363" d="M135 0V213H257V0H135Z" />
<glyph unicode="/" glyph-name="slash" horiz-adv-x="674" d="M44 0L532 1658H629L142 0H44Z" />
<glyph unicode="0" glyph-name="zero" horiz-adv-x="1009" d="M504 -22Q415 -22 348 2T237 68T167 172T129 306T118 466V1191Q118 1303 137 1388T200 1540T320 1642T504 1677T688 1642T808 1541T871 1389T891 1191V466Q891 353 873 269T813 117T694 14T504 -22ZM504
62Q653 62 715 163T778 448V1209Q778 1392 716 1492T504 1593Q356 1593 293 1492T230 1209V448Q230 360 243 293T288 172T373 90T504 62Z" />
<glyph unicode="1" glyph-name="one" horiz-adv-x="825" d="M427 0V1510Q395 1463 321 1427T189 1372V1466Q247 1482 321 1535T443 1658H536V0H427Z" />
<glyph unicode="2" glyph-name="two" horiz-adv-x="1001" d="M111 0V82L572 783Q670 932 701 994Q769 1132 769 1275Q769 1421 703 1503T516 1585Q430 1585 372 1559T283 1480T240 1365T226 1215V1187H119V1221Q119 1453 213 1565T512 1677Q689 1677 783 1568T877
1260Q877 1190 861 1123T810 985T748 869T670 748L236 93H844V0H111Z" />
<glyph unicode="3" glyph-name="three" horiz-adv-x="994" d="M488 -22Q140 -22 140 368V399H242V367Q243 218 302 142T488 66Q549 66 595 83T680 142T739 258T760 440Q760 816 494 820H446V915H493Q637 916 698 1000T760 1270Q760 1590 511 1590Q374 1590 309
1520T242 1288V1264H139V1291Q139 1475 226 1576T510 1677Q603 1677 673 1646T786 1559T850 1431T872 1269Q872 1088 808 987T636 865Q679 854 718 827T793 753T850 625T872 443Q872 226 779 102T488 -22Z" />
<glyph unicode="4" glyph-name="four" horiz-adv-x="1009" d="M230 611H627V1500L230 611ZM627 0V509H115V614L609 1658H736V611H927V509H736V0H627Z" />
<glyph unicode="5" glyph-name="five" horiz-adv-x="1000" d="M515 -19Q333 -19 249 86T165 406H272Q272 229 330 148T521 67Q663 67 720 169T777 507Q777 679 748 778T666 916T525 955Q383 955 291 816H202V1658H805L802 1564H295L291 920Q377 1040 553 1040Q724
1040 803 910T883 518Q883 241 794 111T515 -19Z" />
<glyph unicode="6" glyph-name="six" horiz-adv-x="1008" d="M518 70Q587 70 634 87T718 146T771 262T788 448Q788 550 782 615T760 735T714 819T636 863T518 879Q452 879 377 852T259 795V485Q259 364 275 283T325 155T406 90T518 70ZM518 -22Q326 -22 238 103T150
483V1207Q150 1677 517 1677Q699 1677 783 1586T870 1304V1266H765Q765 1445 709 1516T524 1587Q465 1587 420 1570T337 1514T279 1403T259 1228V878Q311 912 386 939T541 966Q624 966 682 950T784 898T852 803T888 661T900 462Q900 223 810 101T518 -22Z" />
<glyph unicode="7" glyph-name="seven" horiz-adv-x="946" d="M355 0L692 1568H155V1658H804V1604L461 0H355Z" />
<glyph unicode="8" glyph-name="eight" horiz-adv-x="1001" d="M501 916Q639 925 698 1013T758 1263Q758 1429 695 1507T501 1586Q370 1586 307 1508T244 1263Q244 1102 303 1014T501 916ZM370 66T501 66T701 151T770 434Q770 611 707 707T501 821Q358 804 294
708T230 434Q230 237 300 152ZM501 -23Q122 -23 122 432Q122 500 131 557T154 654T191 728T233 781T283 820T332 847T380 868Q266 902 201 1002T136 1267Q136 1357 155 1428T215 1557T328 1646T501 1677Q600 1677 672 1645T786 1555T846 1425T865 1262Q865 1099
801 1001T621 868Q652 855 669 847T717 820T767 781T810 727T847 654T869 557T879 432Q879 -23 501 -23Z" />
<glyph unicode="9" glyph-name="nine" horiz-adv-x="1008" d="M507 776Q660 776 766 860V1170Q766 1330 736 1422T653 1550T510 1585Q373 1585 305 1500T237 1207Q237 1105 243 1040T265 920T311 836T389 792T507 776ZM516 -22Q333 -22 245 70T155 352V389H260Q260
208 317 138T519 68Q578 68 621 84T698 141T749 252T766 427V776Q726 742 655 716T484 689Q281 689 203 799T124 1193Q124 1431 216 1554T510 1677Q702 1677 788 1552T875 1172V448Q875 219 790 99T516 -22Z" />
<glyph unicode=":" glyph-name="colon" horiz-adv-x="392" d="M154 877V1088H274V877H154ZM154 155V365H274V155H154Z" />
<glyph unicode=";" glyph-name="semicolon" horiz-adv-x="417" d="M153 896V1109H274V896H153ZM166 -34L138 13Q191 48 207 80T224 175H153V373H283V198Q283 101 259 50T166 -34Z" />
<glyph unicode="&lt;" glyph-name="less" horiz-adv-x="732" d="M615 157L59 577V683L615 1120V1003L145 630L615 272V157Z" />
<glyph unicode="=" glyph-name="equal" horiz-adv-x="802" d="M100 923V1014H701V923H100ZM100 590V682H701V590H100Z" />
<glyph unicode="&gt;" glyph-name="greater" horiz-adv-x="732" d="M117 157V273L588 647L117 1005V1120L674 699V594L117 157Z" />
<glyph unicode="?" glyph-name="question" horiz-adv-x="955" d="M366 1V150H473V1H366ZM370 410V661Q573 796 660 934T747 1245Q747 1412 668 1498T472 1584Q361 1584 293 1532T225 1383Q225 1347 233 1314L249 1241L152 1217L134 1292Q122 1344 122 1390Q122
1528 221 1603T473 1679Q551 1679 618 1652T738 1573T821 1437T851 1244Q851 1050 758 908T465 630V410H370Z" />
<glyph unicode="@" glyph-name="at" horiz-adv-x="1649" d="M780 340Q854 342 915 404T1015 576L1091 1117Q1039 1154 971 1154Q904 1154 839 1116T720 1011T634 838T601 608Q601 465 649 403T770 340H780ZM907 -203Q120 -203 120 680Q120 875 160 1037T271 1312T439
1503T650 1618T891 1657H901Q1238 1657 1403 1466T1568 892Q1568 838 1567 810Q1561 679 1530 579T1457 421T1361 328T1263 280T1177 268Q1113 268 1063 313T1012 438Q1012 451 1013 458Q978 371 915 315T768 256H759Q639 256 567 348T494 610Q494 747 534 867T641
1067T790 1193T960 1239Q1043 1239 1110 1187L1127 1229H1209L1115 543Q1108 485 1108 454Q1108 400 1127 373T1197 345Q1227 345 1258 355T1328 397T1396 477T1448 611T1476 805Q1478 838 1478 900Q1478 1087 1438 1219T1319 1428T1140 1537T903 1571H888Q746
1569 625 1510T414 1340T273 1061T222 681Q222 536 244 418T304 219T397 75T511 -23T641 -81T777 -110T914 -118Q1093 -118 1293 -67L1321 -147Q1066 -203 907 -203Z" />
<glyph unicode="A" glyph-name="A" horiz-adv-x="959" d="M281 541H679L479 1523L281 541ZM66 0L414 1658H542L893 0H781L695 458H265L176 0H66Z" />
<glyph unicode="B" glyph-name="B" horiz-adv-x="1000" d="M265 931H544Q611 931 657 955T729 1025T764 1123T775 1245Q775 1305 769 1350T743 1438T690 1509T601 1552T470 1569H265V931ZM265 88H531Q689 88 747 179T806 482Q806 843 546 843H265V88ZM153 0V1658H495Q584
1658 652 1637T762 1579T831 1490T868 1377T879 1245Q879 1189 871 1139T842 1036T782 946T684 894Q753 874 801 828T872 721T905 603T915 483Q915 415 910 360T890 248T850 148T783 71T683 18T545 0H153Z" />
<glyph unicode="C" glyph-name="C" horiz-adv-x="1001" d="M523 -22Q427 -22 355 4T239 73T167 182T129 318T118 478V1181Q118 1271 129 1343T169 1479T242 1585T358 1652T523 1677Q629 1677 703 1645T820 1549T882 1403T901 1210V1126H795V1211Q795 1401 736
1493T523 1586Q435 1586 376 1559T286 1476T243 1355T231 1194V460Q231 383 239 325T267 218T320 137T404 88T523 70Q604 70 658 96T742 174T783 290T795 446V546H901V464Q901 375 891 305T854 172T785 68T677 2T523 -22Z" />
<glyph unicode="D" glyph-name="D" horiz-adv-x="1059" d="M153 0V1658H517Q637 1658 721 1622T853 1519T920 1370T941 1182V494Q941 381 921 295T854 141T726 36T526 0H153ZM265 88H521Q599 88 655 110T745 169T797 262T822 375T828 506V1173Q828 1250 820 1308T792
1417T736 1500T646 1550T516 1569H265V88Z" />
<glyph unicode="E" glyph-name="E" horiz-adv-x="804" d="M152 0V1658H726V1569H264V904H643V817H264V88H731V0H152Z" />
<glyph unicode="F" glyph-name="F" horiz-adv-x="784" d="M153 0V1658H724V1570H265V904H662V817H265V0H153Z" />
<glyph unicode="G" glyph-name="G" horiz-adv-x="1045" d="M517 -23Q424 -23 354 2T240 70T168 178T129 316T118 481V1185Q118 1277 129 1349T168 1484T242 1588T357 1653T522 1677Q729 1677 817 1556T905 1204V1146H799V1211Q799 1403 739 1494T523 1586Q451
1586 399 1567T315 1514T264 1429T238 1321T231 1189V467Q231 371 244 302T289 179T379 97T525 70Q605 70 660 96T746 175T790 296T803 460V704H539V790H908V0H836L819 186Q754 -23 517 -23Z" />
<glyph unicode="H" glyph-name="H" horiz-adv-x="1109" d="M152 0V1658H264V911H845V1658H957V0H845V826H264V0H152Z" />
<glyph unicode="I" glyph-name="I" horiz-adv-x="422" d="M156 0V1658H267V0H156Z" />
<glyph unicode="J" glyph-name="J" horiz-adv-x="543" d="M16 -92V-5Q80 -5 120 -1T192 18T238 51T264 110T276 192T278 308V1658H390V294Q390 222 386 173T370 77T337 1T280 -50T195 -82T74 -92H16Z" />
<glyph unicode="K" glyph-name="K" horiz-adv-x="942" d="M152 0V1658H264V728L746 1658H856L505 957L941 0H829L425 889L264 594V0H152Z" />
<glyph unicode="L" glyph-name="L" horiz-adv-x="764" d="M153 0V1658H265V88H766V0H153Z" />
<glyph unicode="M" glyph-name="M" horiz-adv-x="1294" d="M133 0L182 1658H292L644 162L999 1658H1114L1162 0H1065L1024 1391L686 0H605L271 1388L230 0H133Z" />
<glyph unicode="N" glyph-name="N" horiz-adv-x="1055" d="M153 0V1658H242L804 258V1658H903V0H815L252 1403V0H153Z" />
<glyph unicode="O" glyph-name="O" horiz-adv-x="1056" d="M623 -22T528 -22T361 2T244 69T170 176T130 311T118 472V1196Q118 1284 130 1354T171 1486T247 1589T364 1653T528 1677Q643 1677 724 1642T851 1541T917 1391T938 1196V469Q938 380 927 309T887 175T812
69T695 3ZM441 70T528 70T674 96T766 175T811 292T825 447V1212Q825 1302 812 1366T767 1482T675 1560T528 1586T382 1560T290 1483T244 1367T231 1212V447Q231 357 244 292T289 175T381 97Z" />
<glyph unicode="P" glyph-name="P" horiz-adv-x="994" d="M265 879H520Q673 879 743 959T814 1230Q814 1427 749 1499T522 1572H265V879ZM153 0V1658H542Q651 1658 728 1627T847 1536T909 1402T928 1230Q928 1161 917 1100T878 982T808 883T698 817T545 792H265V0H153Z" />
<glyph unicode="Q" glyph-name="Q" horiz-adv-x="1072" d="M448 70T535 70T682 96T776 175T824 292T839 447V1212Q839 1395 772 1490T535 1586Q448 1586 388 1560T294 1483T246 1367T231 1212V447Q231 358 245 293T293 175T387 97ZM879 -319Q775 -269 595 -19Q566
-22 535 -22Q440 -22 368 2T248 69T172 175T130 311T118 472V1196Q118 1306 139 1391T208 1541T338 1642T535 1677T732 1642T862 1541T930 1391T952 1196V469Q952 279 890 158T682 -3Q728 -62 790 -129T889 -220L879 -319Z" />
<glyph unicode="R" glyph-name="R" horiz-adv-x="1041" d="M265 921H550Q628 921 680 943T760 1010T799 1111T810 1250Q810 1417 754 1493T549 1570H265V921ZM153 0V1658H556Q642 1658 706 1637T811 1581T876 1492T910 1380T920 1250Q920 1190 914 1140T892 1041T849
955T778 893T675 857L943 0H832L573 836H265V0H153Z" />
<glyph unicode="S" glyph-name="S" horiz-adv-x="926" d="M486 -21Q121 -21 85 409L183 440Q192 369 204 317T240 217T295 138T375 89T487 71Q752 71 752 338Q752 440 701 524T536 720L233 1022Q89 1166 89 1337Q89 1499 187 1587T452 1677H455Q632 1677 728 1582T838
1261L744 1239Q728 1419 666 1503T465 1587H455Q334 1585 262 1526T190 1345Q190 1280 218 1221T312 1094L611 799Q726 685 791 576T857 344Q857 164 757 72T486 -21Z" />
<glyph unicode="T" glyph-name="T" horiz-adv-x="779" d="M337 0V1569H-14V1658H793V1569H449V0H337Z" />
<glyph unicode="U" glyph-name="U" horiz-adv-x="1092" d="M546 -22Q428 -22 346 8T218 96T154 225T134 389V1658H243V387Q243 314 257 260T304 161T398 93T546 70Q849 70 849 387V1658H958V389Q958 -22 546 -22Z" />
<glyph unicode="V" glyph-name="V" horiz-adv-x="984" d="M450 0L50 1658H159L503 195L826 1658H934L555 0H450Z" />
<glyph unicode="W" glyph-name="W" horiz-adv-x="1446" d="M358 0L69 1657L168 1658L411 220L677 1621H785L1058 219L1280 1658H1377L1107 0H1014L732 1453L455 0H358Z" />
<glyph unicode="X" glyph-name="X" horiz-adv-x="926" d="M30 0L396 861L33 1659H135L461 951L778 1659H889L509 843L896 0H788L447 746L142 0H30Z" />
<glyph unicode="Y" glyph-name="Y" horiz-adv-x="946" d="M424 0V530L41 1658H156L481 663L791 1658H905L535 530V0H424Z" />
<glyph unicode="Z" glyph-name="Z" horiz-adv-x="822" d="M64 0V88L660 1570H117V1658H780V1589L178 88H783V0H64Z" />
<glyph unicode="[" glyph-name="bracketleft" horiz-adv-x="571" d="M152 -297V1658H453V1592H262V-229H453V-297H152Z" />
<glyph unicode="\" glyph-name="backslash" horiz-adv-x="674" d="M531 0L44 1658H141L629 0H531Z" />
<glyph unicode="]" glyph-name="bracketright" horiz-adv-x="553" d="M100 -295V-229H291V1591H100V1658H401V-295H100Z" />
<glyph unicode="^" glyph-name="asciicircum" horiz-adv-x="748" d="M53 1076L315 1658H433L695 1076H603L374 1589L145 1076H53Z" />
<glyph unicode="_" glyph-name="underscore" horiz-adv-x="666" d="M0 -184V-95H666V-184H0Z" />
<glyph unicode="`" glyph-name="grave" horiz-adv-x="429" d="M268 1261L103 1658H213L325 1261H268Z" />
<glyph unicode="a" glyph-name="a" horiz-adv-x="777" d="M342 71Q413 71 469 118T561 237V627Q360 523 307 486Q223 428 200 358Q186 316 186 255Q186 158 231 115T342 71ZM316 -19Q209 -19 144 53T78 240Q78 319 95 371T169 478T314 582T561 706V791Q561 921
545 992T494 1091T397 1120Q358 1120 328 1111T268 1080T224 1011T208 897V864L102 866Q102 894 103 898Q107 1059 181 1131T401 1203Q549 1203 609 1110T670 802V206Q670 37 675 0H582Q567 134 564 157Q536 80 469 31T316 -19Z" />
<glyph unicode="b" glyph-name="b" horiz-adv-x="814" d="M429 66Q536 66 573 161T611 484V715Q611 939 576 1028T431 1118Q326 1118 226 1008V173Q314 66 429 66ZM442 -19Q319 -19 226 98V0H117V1658H226V1084Q317 1203 453 1203Q517 1203 564 1180T641 1117T689
1014T713 880T720 714V487Q720 227 658 104T442 -19Z" />
<glyph unicode="c" glyph-name="c" horiz-adv-x="768" d="M393 -19Q315 -19 260 5T173 69T123 171T100 296T94 445V723Q94 989 158 1096T393 1203Q465 1203 517 1184T601 1132T650 1048T675 944T682 820V772H580V819Q580 993 538 1057T394 1121Q278 1121 241 1039T203
736V429Q203 227 242 145T395 63Q509 63 544 136T580 397V443H682V399Q682 343 680 301T670 213T650 135T616 72T564 22T491 -8T393 -19Z" />
<glyph unicode="d" glyph-name="d" horiz-adv-x="808" d="M388 66Q493 66 582 166V1015Q481 1118 384 1118Q275 1118 239 1030T203 723V477Q203 253 241 160T388 66ZM372 -19Q220 -19 157 97T94 486V697Q94 961 152 1082T367 1203Q492 1202 582 1093V1658H691V0H582V90Q492
-19 372 -19Z" />
<glyph unicode="e" glyph-name="e" horiz-adv-x="777" d="M203 684H581V776Q581 847 578 894T564 988T534 1061T480 1104T398 1121Q327 1121 287 1094T225 990T203 774V684ZM396 -19Q337 -19 292 -7T209 37T146 119T108 250T94 438V754Q94 863 108 943T146 1072T210
1151T294 1192T398 1203Q561 1203 625 1097T689 732L687 619H203V430Q203 221 246 142T395 63Q425 63 447 67T497 85T541 125T569 198T581 312V400H688V322Q688 158 621 70T396 -19Z" />
<glyph unicode="f" glyph-name="f" horiz-adv-x="525" d="M195 0V1107H35V1184H195V1344Q195 1397 197 1430T211 1502T242 1561T298 1597T387 1612Q445 1612 496 1598V1515Q431 1527 409 1527Q343 1527 323 1488T303 1346V1184H501V1107H303V0H195Z" />
<glyph unicode="g" glyph-name="g" horiz-adv-x="878" d="M423 456Q650 456 650 795Q650 837 645 877T624 964T584 1044T518 1100T422 1123T326 1099T259 1040T218 958T197 872T191 795Q191 751 195 711T215 622T254 538T321 480T423 456ZM413 -313Q542 -313 622
-271T703 -142Q703 -95 684 -65T608 -7T443 43L313 65Q124 -43 124 -166Q124 -313 413 -313ZM414 -401Q30 -401 30 -192Q30 -109 92 -36T242 83Q187 97 143 121T99 173Q99 260 246 428Q91 537 91 795Q91 871 110 941T167 1071T271 1167T420 1203Q597 1203 681 1045Q703
1085 747 1124T841 1183L870 1195L902 1113Q849 1100 796 1066T711 993Q726 955 737 893T749 792Q749 604 669 490T423 376Q350 376 297 398Q291 388 258 340T209 260T192 206Q192 186 290 165Q323 156 397 142T484 125Q638 91 716 31T794 -139Q794 -206 764 -258T680
-340T559 -386T414 -401Z" />
<glyph unicode="h" glyph-name="h" horiz-adv-x="802" d="M117 0V1658H226V1058Q351 1203 507 1203Q592 1203 643 1141T694 944V0H584V932Q584 1035 553 1076T460 1118Q346 1118 226 988V0H117Z" />
<glyph unicode="i" glyph-name="i" horiz-adv-x="388" d="M134 1339V1528H243V1339H134ZM134 0V1184H243V0H134Z" />
<glyph unicode="j" glyph-name="j" horiz-adv-x="414" d="M165 1339V1528H275V1339H165ZM-32 -313V-226Q-24 -228 16 -228Q57 -228 86 -217T130 -192T153 -151T163 -104T165 -51V1184H274V-58Q274 -195 212 -256T29 -317Q-21 -317 -32 -313Z" />
<glyph unicode="k" glyph-name="k" horiz-adv-x="785" d="M117 1V1659H226V566L665 1184H783L472 731L765 0H656L390 666L226 444V1H117Z" />
<glyph unicode="l" glyph-name="l" horiz-adv-x="380" d="M137 0V1658H246V0H137Z" />
<glyph unicode="m" glyph-name="m" horiz-adv-x="1275" d="M116 0V1184H220V1059Q277 1128 348 1166T498 1204Q646 1204 682 1046Q740 1122 815 1163T971 1204Q1056 1204 1111 1143T1167 936V0H1062V939Q1062 1046 1029 1086T936 1127Q812 1127 691 988Q694 964
694 936V0H589V939Q589 1046 556 1086T463 1127Q402 1127 339 1091T220 990V0H116Z" />
<glyph unicode="n" glyph-name="n" horiz-adv-x="801" d="M116 0V1184H225V1057Q349 1203 506 1203Q591 1203 641 1141T692 944V0H583V932Q583 1035 552 1076T459 1118Q401 1118 340 1083T225 987V0H116Z" />
<glyph unicode="o" glyph-name="o" horiz-adv-x="784" d="M562 -19T392 -19T158 89T94 432V752Q94 986 158 1094T392 1203Q479 1203 537 1175T629 1088T676 948T690 752V432Q690 197 626 89ZM350 63T392 63T465 73T517 107T551 159T570 232T579 321T581 428V756Q581
833 578 882T564 981T533 1059T478 1104T392 1121T306 1104T251 1059T220 982T206 883T203 756V428Q203 364 205 321T213 233T233 159T266 108T318 74Z" />
<glyph unicode="p" glyph-name="p" horiz-adv-x="819" d="M430 66Q537 66 574 161T612 484V715Q612 939 577 1028T431 1118Q326 1118 226 1008V173Q316 66 430 66ZM117 -390V1184H226V1083Q319 1203 453 1203Q533 1203 586 1170T668 1069T708 917T720 714V487Q720
227 659 104T443 -19Q321 -19 226 98V-390H117Z" />
<glyph unicode="q" glyph-name="q" horiz-adv-x="812" d="M393 66Q498 66 588 167V1014Q489 1118 389 1118Q280 1118 244 1030T208 723V477Q208 253 246 160T393 66ZM588 -390V91Q497 -19 377 -19Q225 -19 162 97T99 486V697Q99 961 157 1082T372 1203Q499 1202
588 1092V1184H697V-390H588Z" />
<glyph unicode="r" glyph-name="r" horiz-adv-x="580" d="M132 0V1184H240V1024Q290 1107 368 1151T520 1196Q521 1196 529 1196T540 1195V1082Q522 1088 496 1088Q330 1088 240 935V0H132Z" />
<glyph unicode="s" glyph-name="s" horiz-adv-x="730" d="M384 -19Q246 -19 164 71T69 319L161 346Q182 63 389 63Q477 63 527 112T577 252Q577 387 404 533L267 649Q176 725 136 793T96 947Q96 1068 168 1135T365 1203Q493 1203 560 1121T633 892L552 868Q544
1121 370 1121Q291 1121 244 1080T196 964Q196 894 220 846T317 737L458 612Q509 568 538 539T603 464T656 366T674 253Q674 125 596 53T384 -19Z" />
<glyph unicode="t" glyph-name="t" horiz-adv-x="538" d="M376 -13Q328 -13 294 0T239 33T207 87T192 154T188 234V1112H33V1184H188V1562H296V1184H497V1112H296V247Q296 146 316 110T400 73Q431 73 487 83V1Q436 -13 376 -13Z" />
<glyph unicode="u" glyph-name="u" horiz-adv-x="808" d="M292 -19Q207 -19 157 43T106 240V1184H215V252Q215 149 246 108T339 66T463 104T583 208V1184H691V0H583V139Q524 65 449 23T292 -19Z" />
<glyph unicode="v" glyph-name="v" horiz-adv-x="731" d="M311 0L39 1184H149L371 138L587 1184H692L433 0H311Z" />
<glyph unicode="w" glyph-name="w" horiz-adv-x="1160" d="M263 0L67 1184H163L328 124L530 1184H636L843 129L997 1184H1093L904 0H791L585 1039L386 0H263Z" />
<glyph unicode="x" glyph-name="x" horiz-adv-x="767" d="M41 0L330 617L59 1184H171L392 714L611 1184H723L443 606L728 0H625L383 504L148 0H41Z" />
<glyph unicode="y" glyph-name="y" horiz-adv-x="767" d="M76 -295V-207Q180 -207 237 -190T313 -145T332 -69Q332 -53 331 -44Q328 -13 297 120Q239 358 49 1184H156L390 103L614 1184H723L434 -97Q410 -202 337 -248T121 -295H76Z" />
<glyph unicode="z" glyph-name="z" horiz-adv-x="666" d="M66 0V79L493 1100H111V1184H605V1113L181 83H597V0H66Z" />
<glyph unicode="{" glyph-name="braceleft" horiz-adv-x="475" d="M439 -305Q401 -305 374 -304T323 -297T282 -286T251 -264T228 -236T213 -195T203 -143T198 -75T196 7T195 108V358Q195 530 173 587T76 644V738Q150 738 172 795T195 1024V1261Q195 1325 195
1362T198 1444T203 1512T213 1563T228 1604T250 1633T281 1654T322 1666T374 1673T439 1674V1592Q338 1592 320 1546T302 1261V992Q302 839 278 775T191 691Q254 671 278 607T302 390V108Q302 -130 320 -176T439 -222V-305Z" />
<glyph unicode="|" glyph-name="bar" horiz-adv-x="418" d="M158 -289V1658H260V-289H158Z" />
<glyph unicode="}" glyph-name="braceright" horiz-adv-x="487" d="M48 -305V-222Q149 -222 167 -176T185 108V390Q185 543 209 607T296 691Q233 711 209 775T185 992V1261Q185 1500 167 1546T48 1592V1674Q86 1674 113 1673T164 1666T205 1655T236 1633T259 1605T274
1564T284 1512T289 1444T291 1362T292 1261V1024Q292 852 314 795T411 738V644Q337 644 315 587T292 358V108Q292 44 292 7T289 -75T284 -143T274 -194T259 -235T237 -264T206 -285T165 -297T113 -304T48 -305Z" />
<glyph unicode="~" glyph-name="asciitilde" horiz-adv-x="783" d="M527 781Q486 781 388 837T258 893Q211 893 123 808L83 858Q185 975 265 975Q305 975 402 920T529 865Q556 865 581 880T660 938L700 888Q593 781 527 781Z" />
</font>
</defs>
</svg>
