<?xml version="1.0" encoding="utf-8"?>
<!-- Generator: Adobe Illustrator 19.1.1, SVG Export Plug-In . SVG Version: 6.00 Build 0)  -->
<svg version="1.1" id="Layer_1" xmlns="http://www.w3.org/2000/svg" xmlns:xlink="http://www.w3.org/1999/xlink" x="0px" y="0px"
	 viewBox="0 0 214 46" width="214" height="46" style="enable-background:new 0 0 214 46;" xml:space="preserve">
<style type="text/css">
	.st0{fill:#FFFFFF;}
</style>
<g>
	<g>
		<polygon class="st0" points="21.6,8 20,5.3 50,5.3 51.7,2.5 53.1,0 0,0 6.1,10.6 14.6,10.6 13.1,8 13.1,8 		"/>
		<polygon class="st0" points="25.6,14.9 24.3,12.7 45.7,12.7 46.6,11.2 6.4,11.2 10.1,17.5 18.6,17.5 17.1,14.9 17.1,14.9 		"/>
		<polygon class="st0" points="21.1,21.8 29.6,21.8 28.3,19.6 41.7,19.6 42.4,18.5 42.7,18.1 10.4,18.1 14.1,24.4 22.6,24.4 
			21.1,21.8 		"/>
		<polygon class="st0" points="25,28.7 25,28.7 33.5,28.7 32.3,26.6 37.8,26.6 37.8,26.4 38.7,25 14.4,25 18.1,31.3 26.6,31.3 		"/>
		<polygon class="st0" points="29,35.6 29,35.6 32.6,35.6 34.7,31.9 18.4,31.9 22.1,38.2 30.5,38.2 		"/>
		<g>
			<polygon class="st0" points="30.7,38.8 22.4,38.8 26.5,46 			"/>
		</g>
	</g>
	<g>
		<path class="st0" d="M56,15.6l3.9,10.5l3.7-10.5H67l-6.3,16h-1.8l-6.2-16H56z"/>
		<path class="st0" d="M76.2,18.2H71v3.5h5v2.6h-5v4.2h5.2v2.6h-8.4V15.6h8.4V18.2z"/>
		<path class="st0" d="M78.3,31.2v-16h2.3l8.5,10.9l0-10.5h3.1v15.9H90l-8.5-10.9l0,10.6H78.3z"/>
		<path class="st0" d="M99.9,18.2v13h-3.2v-13h-3.3v-2.6h9.7v2.6H99.9z"/>
		<path class="st0" d="M111.5,27.9h-5.6l-1.3,3.3h-3.3l6.3-16h2.5l6.1,16h-3.4L111.5,27.9z M110.7,25.4l-2-5.7l-1.8,5.7H110.7z"/>
		<path class="st0" d="M130.5,31.2l-1.3-9.7l-3.7,9.9l-1.1,0l-3.6-9.9l-1.5,9.7h-3.2l2.7-16h2.2l4,10.3l3.8-10.3h2.3l2.4,16H130.5z"
			/>
		<path class="st0" d="M142.3,31.6c-2.3,0-4.2-0.8-5.7-2.4c-1.5-1.6-2.3-3.5-2.3-5.8c0-2.2,0.7-4.1,2.2-5.7c1.5-1.6,3.5-2.5,5.8-2.5
			c2.3,0,4.2,0.8,5.8,2.5c1.5,1.6,2.2,3.5,2.2,5.7c0,2.3-0.8,4.2-2.3,5.8C146.5,30.8,144.6,31.6,142.3,31.6z M142.3,18.2
			c-1.3,0-2.5,0.5-3.4,1.5c-0.9,1-1.4,2.2-1.4,3.5c0,1.3,0.4,2.5,1.3,3.6c1,1.2,2.1,1.8,3.4,1.8c1.3,0,2.4-0.6,3.4-1.8
			c0.9-1.1,1.4-2.3,1.4-3.6c0-1.3-0.4-2.5-1.3-3.5C144.8,18.7,143.6,18.2,142.3,18.2z"/>
		<path class="st0" d="M151.9,31.2v-16h2.3l8.5,10.9l0-10.5h3.2v15.9h-2.3L155,20.6l0,10.6H151.9z"/>
		<path class="st0" d="M174.3,15.6v10.3c0,0.9,0,1.6-0.1,2c-0.1,0.7-0.4,1.3-0.8,1.9c-0.4,0.6-0.9,1-1.6,1.3
			c-0.6,0.3-1.3,0.4-2.1,0.4c-0.6,0-1.1-0.1-1.7-0.4c-0.6-0.3-1.1-0.6-1.5-1.1l2-2.2c0.1,0.3,0.2,0.5,0.5,0.7
			c0.2,0.2,0.5,0.3,0.7,0.3c0.6,0,0.9-0.3,1.1-1c0.1-0.5,0.2-1.1,0.2-1.9v-0.6v-9.8H174.3z"/>
		<path class="st0" d="M185.5,27.9h-5.6l-1.3,3.3h-3.3l6.3-16h2.4l6.1,16h-3.4L185.5,27.9z M184.6,25.4l-2-5.7l-1.8,5.7H184.6z"/>
		<path class="st0" d="M199.2,15.6h3.9l-6.1,7.2l6.5,8.4h-4.1l-5.2-7l0,7H191V15.6h3.1v6.6L199.2,15.6z"/>
		<path class="st0" d="M213.5,16.9L212,19c-0.3-0.4-0.7-0.7-1.1-0.9c-0.4-0.2-0.9-0.3-1.4-0.3c-0.5,0-1,0.2-1.4,0.5
			c-0.4,0.3-0.6,0.8-0.6,1.3c0,0.7,0.5,1.3,1.7,1.8c1.8,0.8,2.8,1.3,3.1,1.5c1.1,0.8,1.7,2,1.7,3.5c0,1.6-0.5,2.9-1.4,3.9
			c-1,1-2.3,1.5-3.9,1.5c-1.1,0-2-0.3-2.8-0.8c-0.8-0.5-1.5-1.3-2.1-2.2l2-1.9c0.2,0.6,0.6,1.2,1.1,1.6c0.5,0.4,1.1,0.7,1.8,0.7
			c0.6,0,1.1-0.2,1.5-0.7c0.4-0.4,0.6-1,0.6-1.6c0-0.6-0.2-1-0.5-1.4c-0.3-0.3-1.1-0.7-2.3-1.2c-1.2-0.5-2.1-1-2.6-1.5
			c-0.7-0.7-1-1.6-1-2.7c0-1.3,0.4-2.4,1.3-3.3c0.9-0.9,2-1.4,3.4-1.4c0.7,0,1.5,0.2,2.4,0.5C212.3,16,213,16.4,213.5,16.9z"/>
	</g>
</g>
</svg>
