<?xml version="1.0" encoding="utf-8"?>
<!-- Generator: Adobe Illustrator 19.1.0, SVG Export Plug-In . SVG Version: 6.00 Build 0)  -->
<svg version="1.1" id="Layer_1" xmlns="http://www.w3.org/2000/svg" xmlns:xlink="http://www.w3.org/1999/xlink" x="0px" y="0px"
	 viewBox="0 0 39 39" width="26" height="26" style="enable-background:new 0 0 39 39;" xml:space="preserve">
<style type="text/css">
	.st0{fill:#FFFFFF;}
</style>
<g>
	<rect x="1.1" y="3.2" class="st0" width="11" height="2"/>
	<path class="st0" d="M4.1,8.2c-0.3,0-0.5-0.1-0.7-0.3l-3-3C0,4.5,0,3.9,0.3,3.5l3-3c0.4-0.4,1-0.4,1.4,0c0.4,0.4,0.4,1,0,1.4
		L2.5,4.2l2.3,2.3c0.4,0.4,0.4,1,0,1.4C4.6,8.1,4.3,8.2,4.1,8.2z"/>
	<rect x="26.9" y="3.2" class="st0" width="11" height="2"/>
	<path class="st0" d="M34.9,8.2c-0.3,0-0.5-0.1-0.7-0.3c-0.4-0.4-0.4-1,0-1.4l2.3-2.3l-2.3-2.3c-0.4-0.4-0.4-1,0-1.4
		c0.4-0.4,1-0.4,1.4,0l3,3c0.4,0.4,0.4,1,0,1.4l-3,3C35.4,8.1,35.2,8.2,34.9,8.2z"/>
	<path class="st0" d="M27.4,21.5h-2V17c0-0.7-0.6-1.3-1.3-1.3c-0.7,0-1.3,0.6-1.3,1.3v0.8h-2V17c0-1.8,1.5-3.3,3.3-3.3
		c1.8,0,3.3,1.5,3.3,3.3V21.5z"/>
	<path class="st0" d="M31.9,22.3h-2v-4.5c0-0.7-0.6-1.3-1.3-1.3c-0.7,0-1.3,0.6-1.3,1.3v3.8h-2v-3.8c0-1.8,1.5-3.3,3.3-3.3
		c1.8,0,3.3,1.5,3.3,3.3V22.3z"/>
	<path class="st0" d="M18.4,26.8h-2V4.9c0-1.8,1.5-3.3,3.3-3.3c1.8,0,3.3,1.5,3.3,3.3v16.6h-2V4.9c0-0.7-0.6-1.3-1.3-1.3
		c-0.7,0-1.3,0.6-1.3,1.3V26.8z"/>
	<path class="st0" d="M18.4,38.8h-2c0-0.6-0.8-1.8-1.7-3c-1.5-2-3.6-4.8-3.9-8.4c-0.1-0.9-0.1-2.3-0.1-4c0-2,1.4-3.7,3.3-4.3
		l3.3-0.9l0.5,1.9l-3.3,0.9c-1.1,0.3-1.8,1.3-1.8,2.4c0,1.7,0,3,0.1,3.8c0.3,3,2.1,5.4,3.5,7.4C17.4,36.3,18.4,37.6,18.4,38.8z"/>
	<path class="st0" d="M34.2,38.8h-2c0-0.6,0.2-1.4,0.6-2.7c1-3.2,2.7-9.2,1.4-15.9c-0.3-1.4-0.8-1.5-1.1-1.5
		c-0.8-0.1-1.5,0.5-1.5,0.5l-1.3-1.5c0.1-0.1,1.3-1.1,3-1c1.5,0.1,2.5,1.2,2.9,3.1c1.5,7.2-0.4,13.5-1.4,16.9
		C34.5,37.6,34.2,38.5,34.2,38.8z"/>
</g>
</svg>
